<mxfile host="app.diagrams.net" modified="2024-01-25T16:21:52.208Z" agent="Mozilla/5.0 (Windows NT 10.0; Win64; x64) AppleWebKit/537.36 (KHTML, like Gecko) Chrome/120.0.0.0 Safari/537.36" etag="yARH8LhD5QVZ12pTLMIQ" version="23.0.1" type="device">
  <diagram name="Little Lemon DB" id="FObCNzbiRLRcKU_1nhXB">
    <mxGraphModel dx="1070" dy="764" grid="1" gridSize="10" guides="1" tooltips="1" connect="1" arrows="1" fold="1" page="1" pageScale="1" pageWidth="827" pageHeight="1169" math="0" shadow="0">
      <root>
        <mxCell id="0" />
        <mxCell id="1" parent="0" />
        <mxCell id="pTBePludpyEEDeJJXXXE-5" style="edgeStyle=orthogonalEdgeStyle;rounded=0;orthogonalLoop=1;jettySize=auto;html=1;exitX=1;exitY=0.5;exitDx=0;exitDy=0;endArrow=none;endFill=0;" edge="1" parent="1" source="pTBePludpyEEDeJJXXXE-1" target="pTBePludpyEEDeJJXXXE-4">
          <mxGeometry relative="1" as="geometry" />
        </mxCell>
        <mxCell id="pTBePludpyEEDeJJXXXE-14" style="edgeStyle=orthogonalEdgeStyle;rounded=0;orthogonalLoop=1;jettySize=auto;html=1;exitX=0.5;exitY=1;exitDx=0;exitDy=0;entryX=0.5;entryY=0;entryDx=0;entryDy=0;endArrow=none;endFill=0;" edge="1" parent="1" source="pTBePludpyEEDeJJXXXE-1" target="pTBePludpyEEDeJJXXXE-13">
          <mxGeometry relative="1" as="geometry" />
        </mxCell>
        <mxCell id="pTBePludpyEEDeJJXXXE-1" value="Customer" style="whiteSpace=wrap;html=1;align=center;" vertex="1" parent="1">
          <mxGeometry x="50" y="130" width="100" height="40" as="geometry" />
        </mxCell>
        <mxCell id="pTBePludpyEEDeJJXXXE-8" style="edgeStyle=orthogonalEdgeStyle;rounded=0;orthogonalLoop=1;jettySize=auto;html=1;exitX=1;exitY=0.5;exitDx=0;exitDy=0;endArrow=none;endFill=0;" edge="1" parent="1" source="pTBePludpyEEDeJJXXXE-2" target="pTBePludpyEEDeJJXXXE-7">
          <mxGeometry relative="1" as="geometry" />
        </mxCell>
        <mxCell id="pTBePludpyEEDeJJXXXE-23" style="edgeStyle=orthogonalEdgeStyle;rounded=0;orthogonalLoop=1;jettySize=auto;html=1;exitX=0.5;exitY=1;exitDx=0;exitDy=0;entryX=0.5;entryY=0;entryDx=0;entryDy=0;endArrow=none;endFill=0;" edge="1" parent="1" source="pTBePludpyEEDeJJXXXE-2" target="pTBePludpyEEDeJJXXXE-22">
          <mxGeometry relative="1" as="geometry" />
        </mxCell>
        <mxCell id="pTBePludpyEEDeJJXXXE-2" value="Order" style="whiteSpace=wrap;html=1;align=center;" vertex="1" parent="1">
          <mxGeometry x="370" y="130" width="100" height="40" as="geometry" />
        </mxCell>
        <mxCell id="pTBePludpyEEDeJJXXXE-3" value="Item" style="whiteSpace=wrap;html=1;align=center;" vertex="1" parent="1">
          <mxGeometry x="680" y="130" width="100" height="40" as="geometry" />
        </mxCell>
        <mxCell id="pTBePludpyEEDeJJXXXE-6" style="edgeStyle=orthogonalEdgeStyle;rounded=0;orthogonalLoop=1;jettySize=auto;html=1;exitX=1;exitY=0.5;exitDx=0;exitDy=0;entryX=0;entryY=0.5;entryDx=0;entryDy=0;endArrow=none;endFill=0;" edge="1" parent="1" source="pTBePludpyEEDeJJXXXE-4" target="pTBePludpyEEDeJJXXXE-2">
          <mxGeometry relative="1" as="geometry" />
        </mxCell>
        <mxCell id="pTBePludpyEEDeJJXXXE-4" value="places" style="shape=rhombus;perimeter=rhombusPerimeter;whiteSpace=wrap;html=1;align=center;" vertex="1" parent="1">
          <mxGeometry x="200" y="120" width="120" height="60" as="geometry" />
        </mxCell>
        <mxCell id="pTBePludpyEEDeJJXXXE-9" style="edgeStyle=orthogonalEdgeStyle;rounded=0;orthogonalLoop=1;jettySize=auto;html=1;exitX=1;exitY=0.5;exitDx=0;exitDy=0;entryX=0;entryY=0.5;entryDx=0;entryDy=0;endArrow=none;endFill=0;" edge="1" parent="1" source="pTBePludpyEEDeJJXXXE-7" target="pTBePludpyEEDeJJXXXE-3">
          <mxGeometry relative="1" as="geometry" />
        </mxCell>
        <mxCell id="pTBePludpyEEDeJJXXXE-7" value="contains" style="shape=rhombus;perimeter=rhombusPerimeter;whiteSpace=wrap;html=1;align=center;" vertex="1" parent="1">
          <mxGeometry x="510" y="120" width="120" height="60" as="geometry" />
        </mxCell>
        <mxCell id="pTBePludpyEEDeJJXXXE-18" style="edgeStyle=orthogonalEdgeStyle;rounded=0;orthogonalLoop=1;jettySize=auto;html=1;exitX=0.5;exitY=1;exitDx=0;exitDy=0;entryX=0.5;entryY=0;entryDx=0;entryDy=0;endArrow=none;endFill=0;" edge="1" parent="1" source="pTBePludpyEEDeJJXXXE-12" target="pTBePludpyEEDeJJXXXE-17">
          <mxGeometry relative="1" as="geometry" />
        </mxCell>
        <mxCell id="pTBePludpyEEDeJJXXXE-12" value="Booking" style="whiteSpace=wrap;html=1;align=center;" vertex="1" parent="1">
          <mxGeometry x="50" y="330" width="100" height="40" as="geometry" />
        </mxCell>
        <mxCell id="pTBePludpyEEDeJJXXXE-15" style="edgeStyle=orthogonalEdgeStyle;rounded=0;orthogonalLoop=1;jettySize=auto;html=1;exitX=0.5;exitY=1;exitDx=0;exitDy=0;entryX=0.5;entryY=0;entryDx=0;entryDy=0;endArrow=none;endFill=0;" edge="1" parent="1" source="pTBePludpyEEDeJJXXXE-13" target="pTBePludpyEEDeJJXXXE-12">
          <mxGeometry relative="1" as="geometry" />
        </mxCell>
        <mxCell id="pTBePludpyEEDeJJXXXE-13" value="makes" style="shape=rhombus;perimeter=rhombusPerimeter;whiteSpace=wrap;html=1;align=center;" vertex="1" parent="1">
          <mxGeometry x="40" y="220" width="120" height="60" as="geometry" />
        </mxCell>
        <mxCell id="pTBePludpyEEDeJJXXXE-16" value="Table" style="whiteSpace=wrap;html=1;align=center;" vertex="1" parent="1">
          <mxGeometry x="50" y="530" width="100" height="40" as="geometry" />
        </mxCell>
        <mxCell id="pTBePludpyEEDeJJXXXE-19" style="edgeStyle=orthogonalEdgeStyle;rounded=0;orthogonalLoop=1;jettySize=auto;html=1;exitX=0.5;exitY=1;exitDx=0;exitDy=0;entryX=0.5;entryY=0;entryDx=0;entryDy=0;endArrow=none;endFill=0;" edge="1" parent="1" source="pTBePludpyEEDeJJXXXE-17" target="pTBePludpyEEDeJJXXXE-16">
          <mxGeometry relative="1" as="geometry" />
        </mxCell>
        <mxCell id="pTBePludpyEEDeJJXXXE-17" value="holds" style="shape=rhombus;perimeter=rhombusPerimeter;whiteSpace=wrap;html=1;align=center;" vertex="1" parent="1">
          <mxGeometry x="40" y="420" width="120" height="60" as="geometry" />
        </mxCell>
        <mxCell id="pTBePludpyEEDeJJXXXE-20" value="Staff" style="whiteSpace=wrap;html=1;align=center;" vertex="1" parent="1">
          <mxGeometry x="370" y="330" width="100" height="40" as="geometry" />
        </mxCell>
        <mxCell id="pTBePludpyEEDeJJXXXE-24" style="edgeStyle=orthogonalEdgeStyle;rounded=0;orthogonalLoop=1;jettySize=auto;html=1;exitX=0.5;exitY=1;exitDx=0;exitDy=0;entryX=0.5;entryY=0;entryDx=0;entryDy=0;endArrow=none;endFill=0;" edge="1" parent="1" source="pTBePludpyEEDeJJXXXE-22" target="pTBePludpyEEDeJJXXXE-20">
          <mxGeometry relative="1" as="geometry" />
        </mxCell>
        <mxCell id="pTBePludpyEEDeJJXXXE-22" value="assigned to" style="shape=rhombus;perimeter=rhombusPerimeter;whiteSpace=wrap;html=1;align=center;" vertex="1" parent="1">
          <mxGeometry x="360" y="220" width="120" height="60" as="geometry" />
        </mxCell>
        <mxCell id="pTBePludpyEEDeJJXXXE-25" value="Little Lemon DB - conceptual model" style="text;html=1;strokeColor=none;fillColor=none;align=left;verticalAlign=middle;whiteSpace=wrap;rounded=0;fontSize=20;" vertex="1" parent="1">
          <mxGeometry x="40" y="10" width="390" height="30" as="geometry" />
        </mxCell>
      </root>
    </mxGraphModel>
  </diagram>
</mxfile>
